<?xml version="1.0" encoding="utf-8"?>
<!-- Generator: Adobe Illustrator 27.1.0, SVG Export Plug-In . SVG Version: 6.00 Build 0)  -->
<svg version="1.1" id="Layer_1" xmlns="http://www.w3.org/2000/svg" xmlns:xlink="http://www.w3.org/1999/xlink" x="0px" y="0px"
	 viewBox="0 0 160 48" style="enable-background:new 0 0 160 48;" xml:space="preserve">
<style type="text/css">
	.st0{fill:#A0522D;}
	.st1{fill:#228B22;}
	.st2{fill:#FFFFFF;}
</style>
<path class="st0" d="M20.2,6v23h-4.5v-9.1H4.5v9.1L0,28.9V6h4.5v9.3h11.2V6H20.2z"/>
<path class="st0" d="M28.2,13.4h-4.5v15.6h4.5V13.4z"/>
<path class="st0" d="M25.9,11.2c1.4,0,2.6-1.1,2.6-2.6s-1.2-2.6-2.6-2.6c-1.4,0-2.6,1.1-2.6,2.6S24.4,11.2,25.9,11.2z"/>
<path class="st0" d="M55.2,7.1c-0.1-0.1-0.4-0.1-0.5,0l-1.1,1.6L50.4,3c-0.2-0.2-0.5-0.2-0.7-0.1l-0.6,0.9C48.9,4,48.6,4,48.4,3.8
	c-0.7-1.2-1.7-2.4-2.9-3.6c-0.3-0.3-0.7-0.3-0.9,0.1L40.4,5c-0.3,0.3-0.7,0.3-0.9-0.1L39,4.1c-0.2-0.3-0.6-0.3-0.8-0.1l-6.7,7.6V29
	h5.1c-1.9-2.9-0.8-7.3,0.8-11.9c1.3,2,4.4,4,7.8,5.9c3.4-2,6.5-3.9,7.8-5.9c1.5,4.6,2.6,9.1,0.8,11.9h4.9V11.6L55.2,7.1z M45.2,17.9
	c-2.7-3.7-6.8-6-12.2-6.3c0.5-0.7,2.1-2.9,3.3-3.6c0.4-0.3,1-0.5,1.5-0.3c-0.9,1.3-1.8,2.6-2.8,3.9h0.7l2.2-1.2l0.3,1.2h0.3l3.8-4.3
	L42.6,8c0.3,0.1,0.6-0.3,0.8-0.6c0.1-0.3,0.1-0.7,0.1-1.1c0.1-1.8,1-3,2-4.4c1.2,1.5,1.9,2.4,2.8,4c0.2,0.3,0.4,0.7,0.4,1.1
	c0,0.7-0.5,1.1-1,1.7c-0.8,0.9-1.5,1.9-2.3,2.8h1.9c1.2-1.1,2.3-2.2,3.5-3.4c0.1-0.1,0.3-0.3,0.4-0.3c0.2-0.1,0.4,0.1,0.6,0.2
	c0.4,0.3,0.8,0.8,1.1,1.4l-2,2h1.1c0.8-1,2-1.8,3.3-2c0.3,0.5,0,1.1-0.4,1.5c-0.1,0.1-0.4,0.6-0.4,0.6l2.9-0.1
	C52.4,12,48.4,14.1,45.2,17.9z"/>
<path class="st1" d="M42.6,25.1c-1.4-0.9-2.6-1.9-3.7-3.1c-0.8,0.9-1,2.2-0.9,3.4c0.1,1.2,0.5,2.4,1,3.5h2.9c-0.8-0.7-1.4-2-1.6-3.3
	c0.6,1.4,1.8,2.6,2.9,3.3h2c-0.1-0.8-0.2-1.8-0.7-2.4C44,25.9,43.3,25.5,42.6,25.1z"/>
<path class="st1" d="M51.7,22.1c-1.1,1.1-2.4,2.2-3.7,3.1c-0.7,0.4-1.4,0.8-2,1.5c-0.5,0.7-0.7,1.6-0.8,2.4h2c1.1-0.7,2.2-2,2.9-3.3
	c-0.2,1.3-0.8,2.6-1.6,3.3h2.9c0.6-1.1,1-2.3,1-3.5C52.7,24.2,52.5,23,51.7,22.1z"/>
<path class="st0" d="M73.7,13.4v1.7c-1.2-0.8-2.6-1.3-4.2-1.3c-4.1,0-7.5,3.4-7.5,7.6s3.3,7.6,7.5,7.6c1.5,0,3-0.5,4.2-1.3v1.3h4
	V13.3L73.7,13.4L73.7,13.4z M69.6,24.9c-1.9,0-3.5-1.6-3.5-3.6s1.5-3.6,3.5-3.6s3.5,1.6,3.5,3.6S71.5,24.9,69.6,24.9z"/>
<path class="st0" d="M85.7,6h-4.5v23h4.5V6z"/>
<path class="st0" d="M100.7,13.4v1.7c-1.2-0.8-2.6-1.3-4.2-1.3c-4.1,0-7.5,3.4-7.5,7.6s3.3,7.6,7.5,7.6c1.5,0,3-0.5,4.2-1.3v1.3h4
	V13.3L100.7,13.4L100.7,13.4z M96.6,24.9c-1.9,0-3.5-1.6-3.5-3.6s1.5-3.6,3.5-3.6c2,0,3.5,1.6,3.5,3.6S98.5,24.9,96.6,24.9z"/>
<path class="st0" d="M125.8,13.4l-8.3,23.2H113l2.5-7.6L108,13.4h4.6l4.9,10.6l3.8-10.6H125.8z"/>
<path class="st0" d="M138.7,13.4v1.7c-1.2-0.8-2.6-1.3-4.2-1.3c-4.1,0-7.5,3.4-7.5,7.6s3.3,7.6,7.5,7.6c1.5,0,3-0.5,4.2-1.3v1.3h4
	V13.3L138.7,13.4L138.7,13.4z M134.5,24.9c-1.9,0-3.5-1.6-3.5-3.6s1.5-3.6,3.5-3.6c2,0,3.5,1.6,3.5,3.6S136.4,24.9,134.5,24.9z"/>
<path class="st0" d="M160,21.3v7.6h-4v-7.6c0-1.7-1.3-3-3-3c-0.8,0-1.6,0.3-2.1,0.9c-0.6,0.5-0.9,1.3-0.9,2.2v7.6h-4V13.4h4v1.5
	c0.9-0.5,1.9-0.7,3-0.7c1.9,0,3.6,0.8,4.9,2.1S160,19.4,160,21.3z"/>
<path class="st1" d="M13.6,48h40.6v-1.3c0-7.7-6.1-13.9-13.6-13.9H0v1.3C0,41.7,6.1,48,13.6,48z"/>
<path class="st2" d="M15.1,38.9c0,0.4-0.2,0.8-0.7,1.1c0.6,0.2,0.9,0.9,0.9,1.2c0,1.2-0.9,1.6-2,1.6c-0.8,0-1.7,0-2.6,0v-5.5
	c0.8,0,1.7,0,2.6,0C14.3,37.4,15.1,37.8,15.1,38.9z M11.7,39.5h1.5c0.6,0,0.8-0.3,0.8-0.6c0-0.3-0.2-0.7-0.8-0.7h-1.5V39.5z
	 M11.7,41.9h1.5c0.4,0,1-0.1,1-0.7c0-0.5-0.6-0.7-1-0.7h-1.5V41.9z"/>
<path class="st2" d="M21.8,42.8h-4c0-1.8,0-3.6,0-5.5h4v1h-3v1.3h2.9v0.9h-2.9v1.2h3V42.8z"/>
<path class="st2" d="M28.2,41.8h-2.8l-0.4,1h-1.1l2.4-5.5h1.1l2.4,5.5h-1.1L28.2,41.8z M26.8,38.5l-1,2.4h2L26.8,38.5z"/>
<path class="st2" d="M36.9,40.1c0,1.4-0.8,2.8-2.7,2.8c-0.6,0-1.5,0-2.1,0v-5.5c0.6,0,1.5,0,2.1,0C36.1,37.4,36.9,38.7,36.9,40.1z
	 M33.2,41.8h1.1c1.2,0,1.7-0.9,1.7-1.8c0-0.9-0.5-1.7-1.7-1.7h-1.1V41.8z"/>
<path class="st2" d="M42.8,38.6C42.6,38.3,42,38,41.5,38c-0.8,0-1.1,0.3-1.1,0.7c0,0.5,0.6,0.6,1.2,0.7c1.2,0.1,2.2,0.5,2.2,1.8
	c0,1.2-1.1,1.8-2.2,1.8c-1.1,0-2-0.3-2.4-1.3l0.8-0.5c0.3,0.6,0.9,0.9,1.5,0.9s1.2-0.2,1.2-0.8c0-0.5-0.5-0.7-1.3-0.8
	c-1.1-0.1-2.1-0.4-2.1-1.7c0-1.1,1.1-1.6,2.1-1.6c0.8,0,1.7,0.3,2.1,1.1L42.8,38.6z"/>
</svg>
